G04 (created by PCBNEW (2013-07-07 BZR 4022)-stable) date 4/11/2015 2:22:11 PM*
%MOIN*%
G04 Gerber Fmt 3.4, Leading zero omitted, Abs format*
%FSLAX34Y34*%
G01*
G70*
G90*
G04 APERTURE LIST*
%ADD10C,0.00590551*%
%ADD11C,0.01*%
%ADD12C,0.006*%
%ADD13C,0.005*%
%ADD14C,0.008*%
G04 APERTURE END LIST*
G54D10*
G54D11*
X53750Y-28250D02*
X54150Y-28250D01*
X54150Y-28250D02*
X54150Y-27850D01*
X54150Y-27850D02*
X57350Y-27850D01*
X57350Y-27850D02*
X57350Y-28650D01*
X57350Y-28650D02*
X54150Y-28650D01*
X54150Y-28650D02*
X54150Y-28250D01*
X57750Y-28250D02*
X57350Y-28250D01*
X57750Y-27000D02*
X58150Y-27000D01*
X58150Y-27000D02*
X58150Y-26600D01*
X58150Y-26600D02*
X61350Y-26600D01*
X61350Y-26600D02*
X61350Y-27400D01*
X61350Y-27400D02*
X58150Y-27400D01*
X58150Y-27400D02*
X58150Y-27000D01*
X61750Y-27000D02*
X61350Y-27000D01*
X57750Y-29250D02*
X57350Y-29250D01*
X57350Y-29250D02*
X57350Y-29650D01*
X57350Y-29650D02*
X54150Y-29650D01*
X54150Y-29650D02*
X54150Y-28850D01*
X54150Y-28850D02*
X57350Y-28850D01*
X57350Y-28850D02*
X57350Y-29250D01*
X53750Y-29250D02*
X54150Y-29250D01*
X57750Y-26000D02*
X58150Y-26000D01*
X58150Y-26000D02*
X58150Y-25600D01*
X58150Y-25600D02*
X61350Y-25600D01*
X61350Y-25600D02*
X61350Y-26400D01*
X61350Y-26400D02*
X58150Y-26400D01*
X58150Y-26400D02*
X58150Y-26000D01*
X61750Y-26000D02*
X61350Y-26000D01*
X51750Y-29500D02*
X51750Y-25500D01*
X52750Y-29500D02*
X52750Y-25500D01*
X52750Y-25500D02*
X51750Y-25500D01*
X51750Y-29500D02*
X52750Y-29500D01*
X62750Y-29500D02*
X62750Y-25500D01*
X63750Y-29500D02*
X63750Y-25500D01*
X63750Y-25500D02*
X62750Y-25500D01*
X62750Y-29500D02*
X63750Y-29500D01*
X55250Y-25800D02*
G75*
G03X55550Y-25500I0J300D01*
G74*
G01*
X54950Y-25500D02*
G75*
G03X55250Y-25800I300J0D01*
G74*
G01*
X56250Y-25500D02*
X56250Y-27500D01*
X56250Y-27500D02*
X54250Y-27500D01*
X54250Y-27500D02*
X54250Y-25500D01*
X54250Y-25500D02*
X56250Y-25500D01*
X60250Y-29450D02*
G75*
G03X59950Y-29750I0J-300D01*
G74*
G01*
X60550Y-29750D02*
G75*
G03X60250Y-29450I-300J0D01*
G74*
G01*
X59250Y-29750D02*
X59250Y-27750D01*
X59250Y-27750D02*
X61250Y-27750D01*
X61250Y-27750D02*
X61250Y-29750D01*
X61250Y-29750D02*
X59250Y-29750D01*
G54D12*
X54900Y-28371D02*
X54800Y-28228D01*
X54728Y-28371D02*
X54728Y-28071D01*
X54842Y-28071D01*
X54871Y-28085D01*
X54885Y-28100D01*
X54900Y-28128D01*
X54900Y-28171D01*
X54885Y-28200D01*
X54871Y-28214D01*
X54842Y-28228D01*
X54728Y-28228D01*
X55185Y-28371D02*
X55014Y-28371D01*
X55100Y-28371D02*
X55100Y-28071D01*
X55071Y-28114D01*
X55042Y-28142D01*
X55014Y-28157D01*
X56164Y-28071D02*
X56350Y-28071D01*
X56250Y-28185D01*
X56292Y-28185D01*
X56321Y-28200D01*
X56335Y-28214D01*
X56350Y-28242D01*
X56350Y-28314D01*
X56335Y-28342D01*
X56321Y-28357D01*
X56292Y-28371D01*
X56207Y-28371D01*
X56178Y-28357D01*
X56164Y-28342D01*
X56450Y-28071D02*
X56635Y-28071D01*
X56535Y-28185D01*
X56578Y-28185D01*
X56607Y-28200D01*
X56621Y-28214D01*
X56635Y-28242D01*
X56635Y-28314D01*
X56621Y-28342D01*
X56607Y-28357D01*
X56578Y-28371D01*
X56492Y-28371D01*
X56464Y-28357D01*
X56450Y-28342D01*
X56821Y-28071D02*
X56850Y-28071D01*
X56878Y-28085D01*
X56892Y-28100D01*
X56907Y-28128D01*
X56921Y-28185D01*
X56921Y-28257D01*
X56907Y-28314D01*
X56892Y-28342D01*
X56878Y-28357D01*
X56850Y-28371D01*
X56821Y-28371D01*
X56792Y-28357D01*
X56778Y-28342D01*
X56764Y-28314D01*
X56750Y-28257D01*
X56750Y-28185D01*
X56764Y-28128D01*
X56778Y-28100D01*
X56792Y-28085D01*
X56821Y-28071D01*
X58900Y-27121D02*
X58800Y-26978D01*
X58728Y-27121D02*
X58728Y-26821D01*
X58842Y-26821D01*
X58871Y-26835D01*
X58885Y-26850D01*
X58900Y-26878D01*
X58900Y-26921D01*
X58885Y-26950D01*
X58871Y-26964D01*
X58842Y-26978D01*
X58728Y-26978D01*
X59157Y-26921D02*
X59157Y-27121D01*
X59085Y-26807D02*
X59014Y-27021D01*
X59200Y-27021D01*
X60164Y-26821D02*
X60350Y-26821D01*
X60250Y-26935D01*
X60292Y-26935D01*
X60321Y-26950D01*
X60335Y-26964D01*
X60350Y-26992D01*
X60350Y-27064D01*
X60335Y-27092D01*
X60321Y-27107D01*
X60292Y-27121D01*
X60207Y-27121D01*
X60178Y-27107D01*
X60164Y-27092D01*
X60450Y-26821D02*
X60635Y-26821D01*
X60535Y-26935D01*
X60578Y-26935D01*
X60607Y-26950D01*
X60621Y-26964D01*
X60635Y-26992D01*
X60635Y-27064D01*
X60621Y-27092D01*
X60607Y-27107D01*
X60578Y-27121D01*
X60492Y-27121D01*
X60464Y-27107D01*
X60450Y-27092D01*
X60821Y-26821D02*
X60850Y-26821D01*
X60878Y-26835D01*
X60892Y-26850D01*
X60907Y-26878D01*
X60921Y-26935D01*
X60921Y-27007D01*
X60907Y-27064D01*
X60892Y-27092D01*
X60878Y-27107D01*
X60850Y-27121D01*
X60821Y-27121D01*
X60792Y-27107D01*
X60778Y-27092D01*
X60764Y-27064D01*
X60750Y-27007D01*
X60750Y-26935D01*
X60764Y-26878D01*
X60778Y-26850D01*
X60792Y-26835D01*
X60821Y-26821D01*
X56500Y-29371D02*
X56400Y-29228D01*
X56328Y-29371D02*
X56328Y-29071D01*
X56442Y-29071D01*
X56471Y-29085D01*
X56485Y-29100D01*
X56500Y-29128D01*
X56500Y-29171D01*
X56485Y-29200D01*
X56471Y-29214D01*
X56442Y-29228D01*
X56328Y-29228D01*
X56614Y-29100D02*
X56628Y-29085D01*
X56657Y-29071D01*
X56728Y-29071D01*
X56757Y-29085D01*
X56771Y-29100D01*
X56785Y-29128D01*
X56785Y-29157D01*
X56771Y-29200D01*
X56600Y-29371D01*
X56785Y-29371D01*
X54671Y-29171D02*
X54671Y-29371D01*
X54600Y-29057D02*
X54528Y-29271D01*
X54714Y-29271D01*
X54828Y-29342D02*
X54842Y-29357D01*
X54828Y-29371D01*
X54814Y-29357D01*
X54828Y-29342D01*
X54828Y-29371D01*
X54942Y-29071D02*
X55142Y-29071D01*
X55014Y-29371D01*
X55257Y-29371D02*
X55257Y-29071D01*
X55285Y-29257D02*
X55371Y-29371D01*
X55371Y-29171D02*
X55257Y-29285D01*
X58900Y-26121D02*
X58800Y-25978D01*
X58728Y-26121D02*
X58728Y-25821D01*
X58842Y-25821D01*
X58871Y-25835D01*
X58885Y-25850D01*
X58900Y-25878D01*
X58900Y-25921D01*
X58885Y-25950D01*
X58871Y-25964D01*
X58842Y-25978D01*
X58728Y-25978D01*
X59000Y-25821D02*
X59185Y-25821D01*
X59085Y-25935D01*
X59128Y-25935D01*
X59157Y-25950D01*
X59171Y-25964D01*
X59185Y-25992D01*
X59185Y-26064D01*
X59171Y-26092D01*
X59157Y-26107D01*
X59128Y-26121D01*
X59042Y-26121D01*
X59014Y-26107D01*
X59000Y-26092D01*
X60271Y-25921D02*
X60271Y-26121D01*
X60200Y-25807D02*
X60128Y-26021D01*
X60314Y-26021D01*
X60428Y-26092D02*
X60442Y-26107D01*
X60428Y-26121D01*
X60414Y-26107D01*
X60428Y-26092D01*
X60428Y-26121D01*
X60542Y-25821D02*
X60742Y-25821D01*
X60614Y-26121D01*
X60857Y-26121D02*
X60857Y-25821D01*
X60885Y-26007D02*
X60971Y-26121D01*
X60971Y-25921D02*
X60857Y-26035D01*
G54D13*
X52065Y-29901D02*
X52065Y-29651D01*
X52160Y-29651D01*
X52184Y-29663D01*
X52196Y-29675D01*
X52208Y-29698D01*
X52208Y-29734D01*
X52196Y-29758D01*
X52184Y-29770D01*
X52160Y-29782D01*
X52065Y-29782D01*
X52446Y-29901D02*
X52303Y-29901D01*
X52375Y-29901D02*
X52375Y-29651D01*
X52351Y-29686D01*
X52327Y-29710D01*
X52303Y-29722D01*
X63065Y-29901D02*
X63065Y-29651D01*
X63160Y-29651D01*
X63184Y-29663D01*
X63196Y-29675D01*
X63208Y-29698D01*
X63208Y-29734D01*
X63196Y-29758D01*
X63184Y-29770D01*
X63160Y-29782D01*
X63065Y-29782D01*
X63303Y-29675D02*
X63315Y-29663D01*
X63339Y-29651D01*
X63398Y-29651D01*
X63422Y-29663D01*
X63434Y-29675D01*
X63446Y-29698D01*
X63446Y-29722D01*
X63434Y-29758D01*
X63291Y-29901D01*
X63446Y-29901D01*
G54D14*
X54945Y-26011D02*
X54945Y-26335D01*
X54964Y-26373D01*
X54983Y-26392D01*
X55021Y-26411D01*
X55097Y-26411D01*
X55135Y-26392D01*
X55154Y-26373D01*
X55173Y-26335D01*
X55173Y-26011D01*
X55345Y-26050D02*
X55364Y-26030D01*
X55402Y-26011D01*
X55497Y-26011D01*
X55535Y-26030D01*
X55554Y-26050D01*
X55573Y-26088D01*
X55573Y-26126D01*
X55554Y-26183D01*
X55326Y-26411D01*
X55573Y-26411D01*
X54630Y-26933D02*
X54592Y-26914D01*
X54573Y-26895D01*
X54554Y-26857D01*
X54554Y-26838D01*
X54573Y-26800D01*
X54592Y-26780D01*
X54630Y-26761D01*
X54707Y-26761D01*
X54745Y-26780D01*
X54764Y-26800D01*
X54783Y-26838D01*
X54783Y-26857D01*
X54764Y-26895D01*
X54745Y-26914D01*
X54707Y-26933D01*
X54630Y-26933D01*
X54592Y-26952D01*
X54573Y-26971D01*
X54554Y-27009D01*
X54554Y-27085D01*
X54573Y-27123D01*
X54592Y-27142D01*
X54630Y-27161D01*
X54707Y-27161D01*
X54745Y-27142D01*
X54764Y-27123D01*
X54783Y-27085D01*
X54783Y-27009D01*
X54764Y-26971D01*
X54745Y-26952D01*
X54707Y-26933D01*
X55164Y-27161D02*
X54935Y-27161D01*
X55050Y-27161D02*
X55050Y-26761D01*
X55011Y-26819D01*
X54973Y-26857D01*
X54935Y-26876D01*
X55297Y-26761D02*
X55564Y-26761D01*
X55392Y-27161D01*
X55945Y-27123D02*
X55926Y-27142D01*
X55869Y-27161D01*
X55830Y-27161D01*
X55773Y-27142D01*
X55735Y-27104D01*
X55716Y-27066D01*
X55697Y-26990D01*
X55697Y-26933D01*
X55716Y-26857D01*
X55735Y-26819D01*
X55773Y-26780D01*
X55830Y-26761D01*
X55869Y-26761D01*
X55926Y-26780D01*
X55945Y-26800D01*
X59945Y-28761D02*
X59945Y-29085D01*
X59964Y-29123D01*
X59983Y-29142D01*
X60021Y-29161D01*
X60097Y-29161D01*
X60135Y-29142D01*
X60154Y-29123D01*
X60173Y-29085D01*
X60173Y-28761D01*
X60573Y-29161D02*
X60345Y-29161D01*
X60459Y-29161D02*
X60459Y-28761D01*
X60421Y-28819D01*
X60383Y-28857D01*
X60345Y-28876D01*
X59630Y-28183D02*
X59592Y-28164D01*
X59573Y-28145D01*
X59554Y-28107D01*
X59554Y-28088D01*
X59573Y-28050D01*
X59592Y-28030D01*
X59630Y-28011D01*
X59707Y-28011D01*
X59745Y-28030D01*
X59764Y-28050D01*
X59783Y-28088D01*
X59783Y-28107D01*
X59764Y-28145D01*
X59745Y-28164D01*
X59707Y-28183D01*
X59630Y-28183D01*
X59592Y-28202D01*
X59573Y-28221D01*
X59554Y-28259D01*
X59554Y-28335D01*
X59573Y-28373D01*
X59592Y-28392D01*
X59630Y-28411D01*
X59707Y-28411D01*
X59745Y-28392D01*
X59764Y-28373D01*
X59783Y-28335D01*
X59783Y-28259D01*
X59764Y-28221D01*
X59745Y-28202D01*
X59707Y-28183D01*
X60164Y-28411D02*
X59935Y-28411D01*
X60050Y-28411D02*
X60050Y-28011D01*
X60011Y-28069D01*
X59973Y-28107D01*
X59935Y-28126D01*
X60297Y-28011D02*
X60564Y-28011D01*
X60392Y-28411D01*
X60945Y-28373D02*
X60926Y-28392D01*
X60869Y-28411D01*
X60830Y-28411D01*
X60773Y-28392D01*
X60735Y-28354D01*
X60716Y-28316D01*
X60697Y-28240D01*
X60697Y-28183D01*
X60716Y-28107D01*
X60735Y-28069D01*
X60773Y-28030D01*
X60830Y-28011D01*
X60869Y-28011D01*
X60926Y-28030D01*
X60945Y-28050D01*
M02*
