M48
;DRILL file {Pcbnew (2013-07-07 BZR 4022)-stable} date 4/11/2015 2:22:22 PM
;FORMAT={-:-/ absolute / inch / decimal}
FMAT,2
INCH,TZ
T1C0.032
T2C0.040
%
G90
G05
M72
T1
X5.375Y-2.6
X5.375Y-2.7
X5.375Y-2.825
X5.375Y-2.925
X5.675Y-2.6
X5.675Y-2.7
X5.775Y-2.6
X5.775Y-2.7
X5.775Y-2.825
X5.775Y-2.925
X5.875Y-2.825
X5.875Y-2.925
X6.175Y-2.6
X6.175Y-2.7
X6.175Y-2.825
X6.175Y-2.925
T2
X5.225Y-2.6
X5.225Y-2.7
X5.225Y-2.8
X5.225Y-2.9
X6.325Y-2.6
X6.325Y-2.7
X6.325Y-2.8
X6.325Y-2.9
T0
M30
