G04 (created by PCBNEW (2013-07-07 BZR 4022)-stable) date 4/11/2015 2:22:11 PM*
%MOIN*%
G04 Gerber Fmt 3.4, Leading zero omitted, Abs format*
%FSLAX34Y34*%
G01*
G70*
G90*
G04 APERTURE LIST*
%ADD10C,0.00590551*%
%ADD11O,0.059X0.059*%
%ADD12R,0.06X0.06*%
%ADD13C,0.06*%
%ADD14R,0.059X0.059*%
%ADD15C,0.015*%
G04 APERTURE END LIST*
G54D10*
G54D11*
X53750Y-28250D03*
X57750Y-28250D03*
X57750Y-27000D03*
X61750Y-27000D03*
X57750Y-29250D03*
X53750Y-29250D03*
X57750Y-26000D03*
X61750Y-26000D03*
G54D12*
X52250Y-26000D03*
G54D13*
X52250Y-27000D03*
X52250Y-28000D03*
X52250Y-29000D03*
G54D12*
X63250Y-26000D03*
G54D13*
X63250Y-27000D03*
X63250Y-28000D03*
X63250Y-29000D03*
G54D14*
X53750Y-26000D03*
G54D11*
X53750Y-27000D03*
X56750Y-27000D03*
X56750Y-26000D03*
G54D14*
X61750Y-29250D03*
G54D11*
X61750Y-28250D03*
X58750Y-28250D03*
X58750Y-29250D03*
G54D15*
X52250Y-26000D02*
X53000Y-26750D01*
X58000Y-28750D02*
X58500Y-29250D01*
X57500Y-28750D02*
X58000Y-28750D01*
X56500Y-28750D02*
X57500Y-28750D01*
X55000Y-28750D02*
X56500Y-28750D01*
X54000Y-27750D02*
X55000Y-28750D01*
X53500Y-27750D02*
X54000Y-27750D01*
X53000Y-27250D02*
X53500Y-27750D01*
X53000Y-26750D02*
X53000Y-27250D01*
X57750Y-25500D02*
X57500Y-25500D01*
X58000Y-25500D02*
X57750Y-25500D01*
X62000Y-25500D02*
X58000Y-25500D01*
X62500Y-26000D02*
X62000Y-25500D01*
X63250Y-26000D02*
X62500Y-26000D01*
X57000Y-26000D02*
X56750Y-26000D01*
X57500Y-25500D02*
X57000Y-26000D01*
X53750Y-26000D02*
X54500Y-26750D01*
X56750Y-28250D02*
X57500Y-28250D01*
X55250Y-28250D02*
X56750Y-28250D01*
X54500Y-27500D02*
X55250Y-28250D01*
X54500Y-26750D02*
X54500Y-27500D01*
X61750Y-29250D02*
X61250Y-29250D01*
X60250Y-27000D02*
X57750Y-27000D01*
X61000Y-27750D02*
X60250Y-27000D01*
X61000Y-29000D02*
X61000Y-27750D01*
X61250Y-29250D02*
X61000Y-29000D01*
X52250Y-28000D02*
X53500Y-29250D01*
X53500Y-29250D02*
X53750Y-29250D01*
X53750Y-29250D02*
X57000Y-29250D01*
X59250Y-28750D02*
X58750Y-28250D01*
X59250Y-29000D02*
X59250Y-28750D01*
X59250Y-29250D02*
X59250Y-29000D01*
X59250Y-29500D02*
X59250Y-29250D01*
X59000Y-29750D02*
X59250Y-29500D01*
X57500Y-29750D02*
X59000Y-29750D01*
X57000Y-29250D02*
X57500Y-29750D01*
X60000Y-26500D02*
X61250Y-26500D01*
X57500Y-26500D02*
X60000Y-26500D01*
X57000Y-27000D02*
X57500Y-26500D01*
X61250Y-26500D02*
X61750Y-26000D01*
X63250Y-27000D02*
X62750Y-27000D01*
X62750Y-27000D02*
X61750Y-26000D01*
X52250Y-27000D02*
X53500Y-28250D01*
X53500Y-28250D02*
X53750Y-28250D01*
X63250Y-28000D02*
X62750Y-28000D01*
X62750Y-28000D02*
X61750Y-27000D01*
M02*
